<svg xmlns="http://www.w3.org/2000/svg" xmlns:xlink="http://www.w3.org/1999/xlink" version="1.1" x="0px" y="0px" viewBox="0 0 100 125" enable-background="new 0 0 100 100" xml:space="preserve"><g><circle cx="50" cy="58.438" r="20.428"/><path d="M89.375,21.953h-22.5v-6.952c0-2.332-1.889-4.298-4.218-4.298H37.344c-2.331,0-4.219,1.966-4.219,4.298v6.952H27.5   c0-2.812-1.888-4.219-4.219-4.219h-5.625c-2.331,0-4.219,1.406-4.219,4.219h-2.812C7.519,21.953,5,24.707,5,27.813v6.875v38.125   v6.876c0,3.106,2.519,5.545,5.625,5.545h24.057C39.2,88.047,44.426,89.297,50,89.297s10.8-1.25,15.317-4.062h24.058   c3.106,0,5.625-2.438,5.625-5.545v-6.876V34.688v-6.875C95,24.707,92.481,21.953,89.375,21.953z M59.845,20.547   c0,2.331-1.89,4.219-4.22,4.219h-11.25c-2.331,0-4.219-1.888-4.219-4.219v-1.406c0-2.33,1.888-4.219,4.219-4.219h11.25   c2.33,0,4.22,1.889,4.22,4.219V20.547z M50,84.49c-14.387,0-26.052-11.665-26.052-26.052c0-14.388,11.665-26.054,26.052-26.054   c14.387,0,26.051,11.665,26.051,26.052C76.051,72.824,64.387,84.49,50,84.49z M82.344,41.72c-3.105,0-5.625-2.519-5.625-5.625   s2.52-5.625,5.625-5.625c3.106,0,5.625,2.519,5.625,5.625S85.45,41.72,82.344,41.72z"/></g><text x="0" y="115" fill="#000000" font-size="5px" font-weight="bold" font-family="'Helvetica Neue', Helvetica, Arial-Unicode, Arial, Sans-serif">Created by Anton Gajdosik</text><text x="0" y="120" fill="#000000" font-size="5px" font-weight="bold" font-family="'Helvetica Neue', Helvetica, Arial-Unicode, Arial, Sans-serif">from the Noun Project</text></svg>